<mxfile host="app.diagrams.net" agent="Mozilla/5.0 (X11; Linux x86_64) AppleWebKit/537.36 (KHTML, like Gecko) Chrome/112.0.0.0 Safari/537.36" version="26.0.6">
  <diagram name="Page-1" id="90a13364-a465-7bf4-72fc-28e22215d7a0">
    <mxGraphModel dx="1434" dy="712" grid="1" gridSize="10" guides="1" tooltips="1" connect="1" arrows="1" fold="1" page="1" pageScale="1.5" pageWidth="1169" pageHeight="826" background="none" math="0" shadow="0">
      <root>
        <mxCell id="0" style=";html=1;" />
        <mxCell id="1" style=";html=1;" parent="0" />
        <mxCell id="vSUFQTlU9pvVbKKtqVWv-30" value="" style="group" parent="1" vertex="1" connectable="0">
          <mxGeometry x="1080" y="640" width="120" height="200" as="geometry" />
        </mxCell>
        <mxCell id="3a17f1ce550125da-5" value="D. Cache" style="whiteSpace=wrap;html=1;shadow=1;fontSize=18;fillColor=#f5f5f5;strokeColor=#666666;container=0;" parent="vSUFQTlU9pvVbKKtqVWv-30" vertex="1">
          <mxGeometry width="120" height="200" as="geometry" />
        </mxCell>
        <mxCell id="TZqJoyw8SQo_n2cczf-P-13" value="DC_addr" style="text;html=1;align=left;verticalAlign=middle;whiteSpace=wrap;rounded=0;container=0;" parent="vSUFQTlU9pvVbKKtqVWv-30" vertex="1">
          <mxGeometry width="60" height="20" as="geometry" />
        </mxCell>
        <mxCell id="TZqJoyw8SQo_n2cczf-P-17" value="DC_RD" style="text;html=1;align=left;verticalAlign=middle;whiteSpace=wrap;rounded=0;container=0;" parent="vSUFQTlU9pvVbKKtqVWv-30" vertex="1">
          <mxGeometry y="160" width="50" height="20" as="geometry" />
        </mxCell>
        <mxCell id="TZqJoyw8SQo_n2cczf-P-18" value="DC_Status" style="text;html=1;align=left;verticalAlign=middle;whiteSpace=wrap;rounded=0;container=0;" parent="vSUFQTlU9pvVbKKtqVWv-30" vertex="1">
          <mxGeometry y="180" width="60" height="20" as="geometry" />
        </mxCell>
        <mxCell id="TZqJoyw8SQo_n2cczf-P-19" value="Up_Addr" style="text;html=1;align=left;verticalAlign=middle;whiteSpace=wrap;rounded=0;container=0;" parent="vSUFQTlU9pvVbKKtqVWv-30" vertex="1">
          <mxGeometry y="40" width="50" height="20" as="geometry" />
        </mxCell>
        <mxCell id="TZqJoyw8SQo_n2cczf-P-20" value="Up_Data" style="text;html=1;align=left;verticalAlign=middle;whiteSpace=wrap;rounded=0;container=0;" parent="vSUFQTlU9pvVbKKtqVWv-30" vertex="1">
          <mxGeometry y="20" width="50" height="20" as="geometry" />
        </mxCell>
        <mxCell id="3a17f1ce550125da-2" value="&lt;div&gt;&lt;font style=&quot;font-size: 21px;&quot;&gt;&lt;b&gt;RV32I47&lt;/b&gt;&lt;/font&gt;&lt;b style=&quot;font-size: 21px; background-color: transparent;&quot;&gt;F&lt;/b&gt;&lt;/div&gt;&lt;div&gt;&lt;font style=&quot;font-size: 21px;&quot;&gt;Core Unit&lt;/font&gt;&lt;/div&gt;" style="whiteSpace=wrap;html=1;shadow=1;fontSize=18;fillColor=#f5f5f5;strokeColor=#666666;" parent="1" vertex="1">
          <mxGeometry x="770" y="440" width="180" height="280" as="geometry" />
        </mxCell>
        <mxCell id="3a17f1ce550125da-10" value="Memory&lt;div&gt;Controller&lt;/div&gt;" style="whiteSpace=wrap;html=1;shadow=1;fontSize=18;fillColor=#f5f5f5;strokeColor=#666666;" parent="1" vertex="1">
          <mxGeometry x="760" y="740" width="200" height="120" as="geometry" />
        </mxCell>
        <mxCell id="0PxaPcuy5lQX8IVzOLOX-10" style="edgeStyle=orthogonalEdgeStyle;rounded=0;orthogonalLoop=1;jettySize=auto;html=1;entryX=0;entryY=0.5;entryDx=0;entryDy=0;" parent="1" source="3a17f1ce550125da-11" target="0PxaPcuy5lQX8IVzOLOX-9" edge="1">
          <mxGeometry relative="1" as="geometry" />
        </mxCell>
        <mxCell id="3a17f1ce550125da-11" value="Clock&lt;div&gt;Generator&lt;/div&gt;" style="whiteSpace=wrap;html=1;shadow=1;fontSize=18;fillColor=#f5f5f5;strokeColor=#666666;" parent="1" vertex="1">
          <mxGeometry x="750" y="340" width="100" height="60" as="geometry" />
        </mxCell>
        <mxCell id="vSUFQTlU9pvVbKKtqVWv-22" style="edgeStyle=orthogonalEdgeStyle;rounded=0;orthogonalLoop=1;jettySize=auto;html=1;entryX=1;entryY=0.5;entryDx=0;entryDy=0;" parent="1" source="yzXIWAhKr3S2XXen1-xH-17" target="I2NlqOw4OFW8eWiskqis-12" edge="1">
          <mxGeometry relative="1" as="geometry">
            <Array as="points">
              <mxPoint x="1020" y="450" />
              <mxPoint x="1020" y="690" />
            </Array>
          </mxGeometry>
        </mxCell>
        <mxCell id="0PxaPcuy5lQX8IVzOLOX-1" value="" style="group" parent="1" vertex="1" connectable="0">
          <mxGeometry x="520" y="440" width="120" height="90" as="geometry" />
        </mxCell>
        <mxCell id="3a17f1ce550125da-8" value="I. Memory" style="whiteSpace=wrap;html=1;shadow=1;fontSize=18;fillColor=#f5f5f5;strokeColor=#666666;" parent="0PxaPcuy5lQX8IVzOLOX-1" vertex="1">
          <mxGeometry width="120" height="90" as="geometry" />
        </mxCell>
        <mxCell id="yzXIWAhKr3S2XXen1-xH-5" value="IM_RD" style="text;html=1;align=right;verticalAlign=middle;whiteSpace=wrap;rounded=0;" parent="0PxaPcuy5lQX8IVzOLOX-1" vertex="1">
          <mxGeometry x="80" y="10" width="40" height="20" as="geometry" />
        </mxCell>
        <mxCell id="0PxaPcuy5lQX8IVzOLOX-42" value="IM_Addr" style="text;html=1;align=center;verticalAlign=middle;whiteSpace=wrap;rounded=0;" parent="0PxaPcuy5lQX8IVzOLOX-1" vertex="1">
          <mxGeometry x="70" y="70" width="50" height="20" as="geometry" />
        </mxCell>
        <mxCell id="0PxaPcuy5lQX8IVzOLOX-2" value="" style="group" parent="1" vertex="1" connectable="0">
          <mxGeometry x="520" y="560" width="120" height="160" as="geometry" />
        </mxCell>
        <mxCell id="0PxaPcuy5lQX8IVzOLOX-3" value="I. Cache" style="whiteSpace=wrap;html=1;shadow=1;fontSize=18;fillColor=#f5f5f5;strokeColor=#666666;" parent="0PxaPcuy5lQX8IVzOLOX-2" vertex="1">
          <mxGeometry width="120" height="160" as="geometry" />
        </mxCell>
        <mxCell id="0PxaPcuy5lQX8IVzOLOX-4" value="IC_RD" style="text;html=1;align=right;verticalAlign=middle;whiteSpace=wrap;rounded=0;" parent="0PxaPcuy5lQX8IVzOLOX-2" vertex="1">
          <mxGeometry x="80" y="100" width="40" height="20" as="geometry" />
        </mxCell>
        <mxCell id="0PxaPcuy5lQX8IVzOLOX-5" value="Addr (PC)" style="text;html=1;align=right;verticalAlign=middle;whiteSpace=wrap;rounded=0;" parent="0PxaPcuy5lQX8IVzOLOX-2" vertex="1">
          <mxGeometry x="60" y="50" width="60" height="20" as="geometry" />
        </mxCell>
        <mxCell id="0PxaPcuy5lQX8IVzOLOX-19" value="Up_Addr" style="text;html=1;align=left;verticalAlign=middle;whiteSpace=wrap;rounded=0;" parent="0PxaPcuy5lQX8IVzOLOX-2" vertex="1">
          <mxGeometry x="70" y="30" width="50" height="20" as="geometry" />
        </mxCell>
        <mxCell id="0PxaPcuy5lQX8IVzOLOX-20" value="IC_Status" style="text;html=1;align=left;verticalAlign=middle;whiteSpace=wrap;rounded=0;" parent="0PxaPcuy5lQX8IVzOLOX-2" vertex="1">
          <mxGeometry x="60" y="140" width="60" height="20" as="geometry" />
        </mxCell>
        <mxCell id="0PxaPcuy5lQX8IVzOLOX-25" value="Up_Data" style="text;html=1;align=left;verticalAlign=middle;whiteSpace=wrap;rounded=0;" parent="0PxaPcuy5lQX8IVzOLOX-2" vertex="1">
          <mxGeometry x="70" y="10" width="50" height="20" as="geometry" />
        </mxCell>
        <mxCell id="TZqJoyw8SQo_n2cczf-P-25" value="Addr (PC)" style="text;html=1;align=right;verticalAlign=middle;whiteSpace=wrap;rounded=0;" parent="0PxaPcuy5lQX8IVzOLOX-2" vertex="1">
          <mxGeometry x="60" y="120" width="60" height="20" as="geometry" />
        </mxCell>
        <mxCell id="0PxaPcuy5lQX8IVzOLOX-9" value="" style="triangle;whiteSpace=wrap;html=1;rotation=90;" parent="1" vertex="1">
          <mxGeometry x="790" y="430" width="20" height="40" as="geometry" />
        </mxCell>
        <mxCell id="0PxaPcuy5lQX8IVzOLOX-21" value="IC_Status" style="text;html=1;align=left;verticalAlign=middle;whiteSpace=wrap;rounded=0;" parent="1" vertex="1">
          <mxGeometry x="760" y="760" width="60" height="20" as="geometry" />
        </mxCell>
        <mxCell id="0PxaPcuy5lQX8IVzOLOX-22" value="I.Up_Addr" style="text;html=1;align=left;verticalAlign=middle;whiteSpace=wrap;rounded=0;" parent="1" vertex="1">
          <mxGeometry x="760" y="840" width="60" height="20" as="geometry" />
        </mxCell>
        <mxCell id="0PxaPcuy5lQX8IVzOLOX-46" value="Instruction&lt;br&gt;Decoder" style="text;html=1;align=left;verticalAlign=middle;whiteSpace=wrap;rounded=0;" parent="1" vertex="1">
          <mxGeometry x="770" y="505" width="60" height="30" as="geometry" />
        </mxCell>
        <mxCell id="TZqJoyw8SQo_n2cczf-P-5" value="PC" style="text;html=1;align=left;verticalAlign=middle;whiteSpace=wrap;rounded=0;" parent="1" vertex="1">
          <mxGeometry x="770" y="640" width="20" height="20" as="geometry" />
        </mxCell>
        <mxCell id="TZqJoyw8SQo_n2cczf-P-7" value="Addr (PC)" style="text;html=1;align=left;verticalAlign=middle;whiteSpace=wrap;rounded=0;" parent="1" vertex="1">
          <mxGeometry x="760" y="740" width="60" height="20" as="geometry" />
        </mxCell>
        <mxCell id="TZqJoyw8SQo_n2cczf-P-28" value="" style="shape=waypoint;sketch=0;size=6;pointerEvents=1;points=[];fillColor=none;resizable=0;rotatable=0;perimeter=centerPerimeter;snapToPoint=1;align=center;verticalAlign=top;fontFamily=Helvetica;fontSize=12;fontColor=default;" parent="1" vertex="1">
          <mxGeometry x="650" y="680" width="20" height="20" as="geometry" />
        </mxCell>
        <mxCell id="TZqJoyw8SQo_n2cczf-P-29" style="edgeStyle=orthogonalEdgeStyle;rounded=0;orthogonalLoop=1;jettySize=auto;html=1;entryX=0;entryY=0.5;entryDx=0;entryDy=0;fontFamily=Helvetica;fontSize=12;fontColor=default;exitX=1;exitY=0.5;exitDx=0;exitDy=0;" parent="1" source="yzXIWAhKr3S2XXen1-xH-5" target="I2NlqOw4OFW8eWiskqis-13" edge="1">
          <mxGeometry relative="1" as="geometry">
            <Array as="points">
              <mxPoint x="690" y="460" />
              <mxPoint x="690" y="510" />
            </Array>
            <mxPoint x="710.03" y="510" as="targetPoint" />
          </mxGeometry>
        </mxCell>
        <mxCell id="TZqJoyw8SQo_n2cczf-P-30" value="" style="shape=waypoint;sketch=0;size=6;pointerEvents=1;points=[];fillColor=none;resizable=0;rotatable=0;perimeter=centerPerimeter;snapToPoint=1;align=center;verticalAlign=top;fontFamily=Helvetica;fontSize=12;fontColor=default;" parent="1" vertex="1">
          <mxGeometry x="670" y="450" width="20" height="20" as="geometry" />
        </mxCell>
        <mxCell id="TZqJoyw8SQo_n2cczf-P-36" style="edgeStyle=orthogonalEdgeStyle;rounded=0;orthogonalLoop=1;jettySize=auto;html=1;entryX=0;entryY=0.5;entryDx=0;entryDy=0;fontFamily=Helvetica;fontSize=12;fontColor=default;exitX=0.5;exitY=0;exitDx=0;exitDy=0;" parent="1" source="TZqJoyw8SQo_n2cczf-P-31" target="0PxaPcuy5lQX8IVzOLOX-46" edge="1">
          <mxGeometry relative="1" as="geometry" />
        </mxCell>
        <mxCell id="TZqJoyw8SQo_n2cczf-P-37" value="" style="group" parent="1" vertex="1" connectable="0">
          <mxGeometry x="710" y="490" width="20" height="60" as="geometry" />
        </mxCell>
        <mxCell id="TZqJoyw8SQo_n2cczf-P-31" value="" style="shape=trapezoid;perimeter=trapezoidPerimeter;whiteSpace=wrap;html=1;fixedSize=1;pointerEvents=0;align=center;verticalAlign=top;fontFamily=Helvetica;fontSize=12;fontColor=#333333;fillColor=#f5f5f5;strokeColor=#666666;shadow=1;rotation=90;" parent="TZqJoyw8SQo_n2cczf-P-37" vertex="1">
          <mxGeometry x="-20" y="20" width="60" height="20" as="geometry" />
        </mxCell>
        <mxCell id="TZqJoyw8SQo_n2cczf-P-34" value="&lt;span style=&quot;background-color: transparent;&quot;&gt;00&lt;/span&gt;" style="text;html=1;align=center;verticalAlign=middle;whiteSpace=wrap;rounded=0;fontFamily=Helvetica;fontSize=12;fontColor=default;" parent="TZqJoyw8SQo_n2cczf-P-37" vertex="1">
          <mxGeometry y="30" width="20" height="20" as="geometry" />
        </mxCell>
        <mxCell id="I2NlqOw4OFW8eWiskqis-13" value="&lt;span style=&quot;background-color: transparent;&quot;&gt;01&lt;/span&gt;" style="text;html=1;align=center;verticalAlign=middle;whiteSpace=wrap;rounded=0;fontFamily=Helvetica;fontSize=12;fontColor=default;" parent="TZqJoyw8SQo_n2cczf-P-37" vertex="1">
          <mxGeometry y="10" width="20" height="20" as="geometry" />
        </mxCell>
        <mxCell id="TZqJoyw8SQo_n2cczf-P-27" style="edgeStyle=orthogonalEdgeStyle;rounded=0;orthogonalLoop=1;jettySize=auto;html=1;entryX=1;entryY=0.5;entryDx=0;entryDy=0;fontFamily=Helvetica;fontSize=12;fontColor=default;jumpStyle=arc;" parent="1" source="TZqJoyw8SQo_n2cczf-P-28" target="0PxaPcuy5lQX8IVzOLOX-42" edge="1">
          <mxGeometry relative="1" as="geometry">
            <Array as="points">
              <mxPoint x="660" y="520" />
            </Array>
          </mxGeometry>
        </mxCell>
        <mxCell id="TZqJoyw8SQo_n2cczf-P-41" style="edgeStyle=orthogonalEdgeStyle;rounded=0;orthogonalLoop=1;jettySize=auto;html=1;entryX=1;entryY=0.5;entryDx=0;entryDy=0;fontFamily=Helvetica;fontSize=12;fontColor=default;jumpStyle=arc;exitX=0;exitY=0.5;exitDx=0;exitDy=0;" parent="1" source="TZqJoyw8SQo_n2cczf-P-40" target="TZqJoyw8SQo_n2cczf-P-31" edge="1">
          <mxGeometry relative="1" as="geometry">
            <Array as="points">
              <mxPoint x="720" y="830" />
              <mxPoint x="720" y="540" />
            </Array>
          </mxGeometry>
        </mxCell>
        <mxCell id="TZqJoyw8SQo_n2cczf-P-40" value="IC.IM_MUX" style="text;html=1;align=left;verticalAlign=middle;whiteSpace=wrap;rounded=0;" parent="1" vertex="1">
          <mxGeometry x="760" y="820" width="70" height="20" as="geometry" />
        </mxCell>
        <mxCell id="vSUFQTlU9pvVbKKtqVWv-1" value="DC_Status" style="text;html=1;align=right;verticalAlign=middle;whiteSpace=wrap;rounded=0;" parent="1" vertex="1">
          <mxGeometry x="900" y="760" width="60" height="20" as="geometry" />
        </mxCell>
        <mxCell id="vSUFQTlU9pvVbKKtqVWv-4" value="&lt;div&gt;DM2RF_RD&lt;/div&gt;(BE_L)" style="text;html=1;align=right;verticalAlign=middle;whiteSpace=wrap;rounded=0;" parent="1" vertex="1">
          <mxGeometry x="880" y="685" width="70" height="30" as="geometry" />
        </mxCell>
        <mxCell id="vSUFQTlU9pvVbKKtqVWv-8" value="MemWrite&lt;div&gt;(CU)&lt;/div&gt;" style="text;html=1;align=right;verticalAlign=middle;whiteSpace=wrap;rounded=0;" parent="1" vertex="1">
          <mxGeometry x="890" y="500" width="60" height="30" as="geometry" />
        </mxCell>
        <mxCell id="vSUFQTlU9pvVbKKtqVWv-9" value="MemRead&lt;div&gt;(CU)&lt;/div&gt;" style="text;html=1;align=right;verticalAlign=middle;whiteSpace=wrap;rounded=0;" parent="1" vertex="1">
          <mxGeometry x="890" y="530" width="60" height="30" as="geometry" />
        </mxCell>
        <mxCell id="vSUFQTlU9pvVbKKtqVWv-12" value="&lt;div&gt;ByteEnable&lt;/div&gt;(BE_L)" style="text;html=1;align=right;verticalAlign=middle;whiteSpace=wrap;rounded=0;" parent="1" vertex="1">
          <mxGeometry x="880" y="650" width="70" height="30" as="geometry" />
        </mxCell>
        <mxCell id="vSUFQTlU9pvVbKKtqVWv-15" value="RF2DM_WD&lt;div&gt;(BE_L)&lt;/div&gt;" style="text;html=1;align=right;verticalAlign=middle;whiteSpace=wrap;rounded=0;" parent="1" vertex="1">
          <mxGeometry x="880" y="620" width="70" height="30" as="geometry" />
        </mxCell>
        <mxCell id="vSUFQTlU9pvVbKKtqVWv-23" value="" style="group;rotation=-180;" parent="1" vertex="1" connectable="0">
          <mxGeometry x="970" y="670" width="20" height="60" as="geometry" />
        </mxCell>
        <mxCell id="vSUFQTlU9pvVbKKtqVWv-24" value="" style="shape=trapezoid;perimeter=trapezoidPerimeter;whiteSpace=wrap;html=1;fixedSize=1;pointerEvents=0;align=center;verticalAlign=top;fontFamily=Helvetica;fontSize=12;fontColor=#333333;fillColor=#f5f5f5;strokeColor=#666666;shadow=1;rotation=-90;" parent="vSUFQTlU9pvVbKKtqVWv-23" vertex="1">
          <mxGeometry x="-20" y="20" width="60" height="20" as="geometry" />
        </mxCell>
        <mxCell id="vSUFQTlU9pvVbKKtqVWv-25" value="00" style="text;html=1;align=center;verticalAlign=middle;whiteSpace=wrap;rounded=0;fontFamily=Helvetica;fontSize=12;fontColor=default;rotation=0;" parent="vSUFQTlU9pvVbKKtqVWv-23" vertex="1">
          <mxGeometry y="30" width="20" height="20" as="geometry" />
        </mxCell>
        <mxCell id="I2NlqOw4OFW8eWiskqis-12" value="01" style="text;html=1;align=center;verticalAlign=middle;whiteSpace=wrap;rounded=0;fontFamily=Helvetica;fontSize=12;fontColor=default;rotation=0;" parent="vSUFQTlU9pvVbKKtqVWv-23" vertex="1">
          <mxGeometry y="10" width="20" height="20" as="geometry" />
        </mxCell>
        <mxCell id="vSUFQTlU9pvVbKKtqVWv-28" style="edgeStyle=orthogonalEdgeStyle;rounded=0;orthogonalLoop=1;jettySize=auto;html=1;entryX=1;entryY=0.5;entryDx=0;entryDy=0;exitX=0.5;exitY=0;exitDx=0;exitDy=0;" parent="1" source="vSUFQTlU9pvVbKKtqVWv-24" target="vSUFQTlU9pvVbKKtqVWv-4" edge="1">
          <mxGeometry relative="1" as="geometry">
            <Array as="points">
              <mxPoint x="960" y="700" />
              <mxPoint x="960" y="700" />
            </Array>
          </mxGeometry>
        </mxCell>
        <mxCell id="vSUFQTlU9pvVbKKtqVWv-29" value="" style="group" parent="1" vertex="1" connectable="0">
          <mxGeometry x="1080" y="440" width="120" height="160" as="geometry" />
        </mxCell>
        <mxCell id="yzXIWAhKr3S2XXen1-xH-7" value="&lt;font&gt;Data&lt;/font&gt;&lt;div&gt;&lt;font&gt;Memory&lt;/font&gt;&lt;/div&gt;" style="whiteSpace=wrap;html=1;shadow=1;fontSize=18;fillColor=#f5f5f5;strokeColor=#666666;" parent="vSUFQTlU9pvVbKKtqVWv-29" vertex="1">
          <mxGeometry width="120" height="160" as="geometry" />
        </mxCell>
        <mxCell id="yzXIWAhKr3S2XXen1-xH-8" value="MemWrite" style="text;html=1;align=left;verticalAlign=middle;whiteSpace=wrap;rounded=0;" parent="vSUFQTlU9pvVbKKtqVWv-29" vertex="1">
          <mxGeometry y="20" width="60" height="20" as="geometry" />
        </mxCell>
        <mxCell id="yzXIWAhKr3S2XXen1-xH-9" value="MemRead" style="text;html=1;align=left;verticalAlign=middle;whiteSpace=wrap;rounded=0;" parent="vSUFQTlU9pvVbKKtqVWv-29" vertex="1">
          <mxGeometry y="40" width="60" height="20" as="geometry" />
        </mxCell>
        <mxCell id="yzXIWAhKr3S2XXen1-xH-10" value="ByteMask" style="text;html=1;align=left;verticalAlign=middle;whiteSpace=wrap;rounded=0;" parent="vSUFQTlU9pvVbKKtqVWv-29" vertex="1">
          <mxGeometry y="100" width="60" height="20" as="geometry" />
        </mxCell>
        <mxCell id="yzXIWAhKr3S2XXen1-xH-11" value="DM_WD" style="text;html=1;align=left;verticalAlign=middle;whiteSpace=wrap;rounded=0;" parent="vSUFQTlU9pvVbKKtqVWv-29" vertex="1">
          <mxGeometry y="120" width="60" height="20" as="geometry" />
        </mxCell>
        <mxCell id="yzXIWAhKr3S2XXen1-xH-12" value="DM_addr" style="text;html=1;align=left;verticalAlign=middle;whiteSpace=wrap;rounded=0;" parent="vSUFQTlU9pvVbKKtqVWv-29" vertex="1">
          <mxGeometry y="140" width="60" height="20" as="geometry" />
        </mxCell>
        <mxCell id="yzXIWAhKr3S2XXen1-xH-17" value="DM_RD" style="text;html=1;align=left;verticalAlign=middle;whiteSpace=wrap;rounded=0;" parent="vSUFQTlU9pvVbKKtqVWv-29" vertex="1">
          <mxGeometry width="50" height="20" as="geometry" />
        </mxCell>
        <mxCell id="I2NlqOw4OFW8eWiskqis-1" value="" style="shape=waypoint;sketch=0;size=6;pointerEvents=1;points=[];fillColor=none;resizable=0;rotatable=0;perimeter=centerPerimeter;snapToPoint=1;" parent="1" vertex="1">
          <mxGeometry x="1010" y="660" width="20" height="20" as="geometry" />
        </mxCell>
        <mxCell id="I2NlqOw4OFW8eWiskqis-2" value="D.Up_Addr" style="text;html=1;align=right;verticalAlign=middle;whiteSpace=wrap;rounded=0;" parent="1" vertex="1">
          <mxGeometry x="890" y="840" width="70" height="20" as="geometry" />
        </mxCell>
        <mxCell id="I2NlqOw4OFW8eWiskqis-4" style="edgeStyle=orthogonalEdgeStyle;rounded=0;orthogonalLoop=1;jettySize=auto;html=1;entryX=0;entryY=0.5;entryDx=0;entryDy=0;" parent="1" source="I2NlqOw4OFW8eWiskqis-3" target="vSUFQTlU9pvVbKKtqVWv-24" edge="1">
          <mxGeometry relative="1" as="geometry" />
        </mxCell>
        <mxCell id="I2NlqOw4OFW8eWiskqis-3" value="DC.DM_MUX" style="text;html=1;align=center;verticalAlign=middle;whiteSpace=wrap;rounded=0;" parent="1" vertex="1">
          <mxGeometry x="880" y="820" width="80" height="20" as="geometry" />
        </mxCell>
        <mxCell id="I2NlqOw4OFW8eWiskqis-7" value="Data_Addr&lt;div&gt;(ALU)&lt;/div&gt;" style="text;html=1;align=right;verticalAlign=middle;whiteSpace=wrap;rounded=0;" parent="1" vertex="1">
          <mxGeometry x="890" y="440" width="60" height="40" as="geometry" />
        </mxCell>
        <mxCell id="I2NlqOw4OFW8eWiskqis-10" style="edgeStyle=orthogonalEdgeStyle;rounded=0;orthogonalLoop=1;jettySize=auto;html=1;entryX=0;entryY=0.5;entryDx=0;entryDy=0;" parent="1" source="I2NlqOw4OFW8eWiskqis-9" target="yzXIWAhKr3S2XXen1-xH-12" edge="1">
          <mxGeometry relative="1" as="geometry" />
        </mxCell>
        <mxCell id="I2NlqOw4OFW8eWiskqis-9" value="" style="shape=waypoint;sketch=0;size=6;pointerEvents=1;points=[];fillColor=none;resizable=0;rotatable=0;perimeter=centerPerimeter;snapToPoint=1;" parent="1" vertex="1">
          <mxGeometry x="1030" y="580" width="20" height="20" as="geometry" />
        </mxCell>
        <mxCell id="I2NlqOw4OFW8eWiskqis-6" style="edgeStyle=orthogonalEdgeStyle;rounded=0;orthogonalLoop=1;jettySize=auto;html=1;entryX=0;entryY=0.5;entryDx=0;entryDy=0;jumpStyle=arc;exitX=1;exitY=0.5;exitDx=0;exitDy=0;" parent="1" source="I2NlqOw4OFW8eWiskqis-2" target="TZqJoyw8SQo_n2cczf-P-19" edge="1">
          <mxGeometry relative="1" as="geometry">
            <Array as="points">
              <mxPoint x="1060" y="850" />
              <mxPoint x="1060" y="690" />
            </Array>
          </mxGeometry>
        </mxCell>
        <mxCell id="I2NlqOw4OFW8eWiskqis-14" value="&lt;h1 style=&quot;margin-top: 0px;&quot;&gt;Basic_RV32-S1&lt;/h1&gt;&lt;p&gt;Cache implemented Top-module level&lt;br&gt;RV32I47F (RV32-S1) Core-Memory System Design.&lt;br&gt;Signal Optimized.&lt;/p&gt;" style="text;html=1;whiteSpace=wrap;overflow=hidden;rounded=0;align=right;" parent="1" vertex="1">
          <mxGeometry x="1030" y="890" width="210" height="110" as="geometry" />
        </mxCell>
        <mxCell id="I2NlqOw4OFW8eWiskqis-15" value="&lt;span style=&quot;&quot;&gt;2025.01.21(火).&lt;/span&gt;&lt;div&gt;&lt;b&gt;강현우,&amp;nbsp;&lt;/b&gt;KHWL2025.&amp;nbsp;&lt;span style=&quot;&quot;&gt;&lt;br&gt;&lt;/span&gt;&lt;/div&gt;" style="text;html=1;align=right;verticalAlign=middle;whiteSpace=wrap;rounded=0;" parent="1" vertex="1">
          <mxGeometry x="1130" y="860" width="110" height="30" as="geometry" />
        </mxCell>
        <mxCell id="I2NlqOw4OFW8eWiskqis-16" value="Data_Addr" style="text;html=1;align=right;verticalAlign=middle;whiteSpace=wrap;rounded=0;" parent="1" vertex="1">
          <mxGeometry x="900" y="740" width="60" height="20" as="geometry" />
        </mxCell>
        <mxCell id="KM3rUq4ovgGOA4LiCq7q-3" style="edgeStyle=orthogonalEdgeStyle;rounded=0;orthogonalLoop=1;jettySize=auto;html=1;entryX=0;entryY=0.5;entryDx=0;entryDy=0;jumpStyle=arc;" edge="1" parent="1" source="I2NlqOw4OFW8eWiskqis-17" target="TZqJoyw8SQo_n2cczf-P-13">
          <mxGeometry relative="1" as="geometry">
            <Array as="points">
              <mxPoint x="1070" y="650" />
              <mxPoint x="1070" y="650" />
            </Array>
          </mxGeometry>
        </mxCell>
        <mxCell id="I2NlqOw4OFW8eWiskqis-17" value="" style="shape=waypoint;sketch=0;size=6;pointerEvents=1;points=[];fillColor=none;resizable=0;rotatable=0;perimeter=centerPerimeter;snapToPoint=1;" parent="1" vertex="1">
          <mxGeometry x="1030" y="640" width="20" height="20" as="geometry" />
        </mxCell>
        <mxCell id="I2NlqOw4OFW8eWiskqis-8" style="edgeStyle=orthogonalEdgeStyle;rounded=0;orthogonalLoop=1;jettySize=auto;html=1;entryX=1;entryY=0.5;entryDx=0;entryDy=0;jumpStyle=arc;" parent="1" source="I2NlqOw4OFW8eWiskqis-7" target="I2NlqOw4OFW8eWiskqis-16" edge="1">
          <mxGeometry relative="1" as="geometry">
            <Array as="points">
              <mxPoint x="1040" y="460" />
              <mxPoint x="1040" y="750" />
            </Array>
          </mxGeometry>
        </mxCell>
        <mxCell id="vSUFQTlU9pvVbKKtqVWv-10" style="edgeStyle=orthogonalEdgeStyle;rounded=0;orthogonalLoop=1;jettySize=auto;html=1;entryX=0;entryY=0.5;entryDx=0;entryDy=0;jumpStyle=arc;" parent="1" source="vSUFQTlU9pvVbKKtqVWv-8" target="yzXIWAhKr3S2XXen1-xH-8" edge="1">
          <mxGeometry relative="1" as="geometry">
            <Array as="points">
              <mxPoint x="960" y="520" />
              <mxPoint x="960" y="470" />
            </Array>
          </mxGeometry>
        </mxCell>
        <mxCell id="vSUFQTlU9pvVbKKtqVWv-11" style="edgeStyle=orthogonalEdgeStyle;rounded=0;orthogonalLoop=1;jettySize=auto;html=1;entryX=0;entryY=0.5;entryDx=0;entryDy=0;jumpStyle=arc;" parent="1" source="vSUFQTlU9pvVbKKtqVWv-9" target="yzXIWAhKr3S2XXen1-xH-9" edge="1">
          <mxGeometry relative="1" as="geometry">
            <Array as="points">
              <mxPoint x="970" y="550" />
              <mxPoint x="970" y="490" />
            </Array>
          </mxGeometry>
        </mxCell>
        <mxCell id="vSUFQTlU9pvVbKKtqVWv-14" style="edgeStyle=orthogonalEdgeStyle;rounded=0;orthogonalLoop=1;jettySize=auto;html=1;entryX=0;entryY=0.5;entryDx=0;entryDy=0;jumpStyle=arc;" parent="1" source="vSUFQTlU9pvVbKKtqVWv-12" target="yzXIWAhKr3S2XXen1-xH-10" edge="1">
          <mxGeometry relative="1" as="geometry">
            <Array as="points">
              <mxPoint x="980" y="660" />
              <mxPoint x="980" y="550" />
            </Array>
          </mxGeometry>
        </mxCell>
        <mxCell id="vSUFQTlU9pvVbKKtqVWv-16" style="edgeStyle=orthogonalEdgeStyle;rounded=0;orthogonalLoop=1;jettySize=auto;html=1;entryX=0;entryY=0.5;entryDx=0;entryDy=0;jumpStyle=arc;" parent="1" source="vSUFQTlU9pvVbKKtqVWv-15" target="yzXIWAhKr3S2XXen1-xH-11" edge="1">
          <mxGeometry relative="1" as="geometry">
            <Array as="points">
              <mxPoint x="960" y="630" />
              <mxPoint x="960" y="570" />
            </Array>
          </mxGeometry>
        </mxCell>
        <mxCell id="yCRBKu3NA8U0qdzCXT5R-9" style="edgeStyle=orthogonalEdgeStyle;rounded=0;orthogonalLoop=1;jettySize=auto;html=1;entryX=1;entryY=0.5;entryDx=0;entryDy=0;exitX=0;exitY=0.5;exitDx=0;exitDy=0;jumpStyle=arc;" parent="1" source="0PxaPcuy5lQX8IVzOLOX-22" target="0PxaPcuy5lQX8IVzOLOX-19" edge="1">
          <mxGeometry relative="1" as="geometry">
            <Array as="points">
              <mxPoint x="680" y="850" />
              <mxPoint x="680" y="600" />
            </Array>
          </mxGeometry>
        </mxCell>
        <mxCell id="yCRBKu3NA8U0qdzCXT5R-3" style="edgeStyle=orthogonalEdgeStyle;rounded=0;orthogonalLoop=1;jettySize=auto;html=1;entryX=1;entryY=0.5;entryDx=0;entryDy=0;jumpStyle=arc;" parent="1" target="0PxaPcuy5lQX8IVzOLOX-25" edge="1">
          <mxGeometry relative="1" as="geometry">
            <Array as="points">
              <mxPoint x="680" y="460" />
              <mxPoint x="680" y="580" />
            </Array>
            <mxPoint x="670" y="460" as="sourcePoint" />
          </mxGeometry>
        </mxCell>
        <mxCell id="TZqJoyw8SQo_n2cczf-P-26" style="edgeStyle=orthogonalEdgeStyle;rounded=0;orthogonalLoop=1;jettySize=auto;html=1;entryX=0;entryY=0.5;entryDx=0;entryDy=0;fontFamily=Helvetica;fontSize=12;fontColor=default;jumpStyle=arc;" parent="1" source="TZqJoyw8SQo_n2cczf-P-25" target="TZqJoyw8SQo_n2cczf-P-7" edge="1">
          <mxGeometry relative="1" as="geometry">
            <Array as="points">
              <mxPoint x="740" y="690" />
              <mxPoint x="740" y="750" />
            </Array>
          </mxGeometry>
        </mxCell>
        <mxCell id="0PxaPcuy5lQX8IVzOLOX-24" style="edgeStyle=orthogonalEdgeStyle;rounded=0;orthogonalLoop=1;jettySize=auto;html=1;entryX=0;entryY=0.5;entryDx=0;entryDy=0;exitX=1;exitY=0.5;exitDx=0;exitDy=0;jumpStyle=arc;" parent="1" source="0PxaPcuy5lQX8IVzOLOX-20" target="0PxaPcuy5lQX8IVzOLOX-21" edge="1">
          <mxGeometry relative="1" as="geometry">
            <Array as="points">
              <mxPoint x="730" y="710" />
              <mxPoint x="730" y="770" />
            </Array>
          </mxGeometry>
        </mxCell>
        <mxCell id="TZqJoyw8SQo_n2cczf-P-35" style="edgeStyle=orthogonalEdgeStyle;rounded=0;orthogonalLoop=1;jettySize=auto;html=1;entryX=0;entryY=0.5;entryDx=0;entryDy=0;fontFamily=Helvetica;fontSize=12;fontColor=default;jumpStyle=arc;" parent="1" source="0PxaPcuy5lQX8IVzOLOX-4" target="TZqJoyw8SQo_n2cczf-P-34" edge="1">
          <mxGeometry relative="1" as="geometry">
            <Array as="points">
              <mxPoint x="690" y="670" />
              <mxPoint x="690" y="530" />
            </Array>
            <mxPoint x="710.03" y="530" as="targetPoint" />
          </mxGeometry>
        </mxCell>
        <mxCell id="TZqJoyw8SQo_n2cczf-P-24" style="edgeStyle=orthogonalEdgeStyle;rounded=0;orthogonalLoop=1;jettySize=auto;html=1;entryX=1;entryY=0.5;entryDx=0;entryDy=0;fontFamily=Helvetica;fontSize=12;fontColor=default;jumpStyle=arc;" parent="1" source="TZqJoyw8SQo_n2cczf-P-5" target="0PxaPcuy5lQX8IVzOLOX-5" edge="1">
          <mxGeometry relative="1" as="geometry">
            <Array as="points">
              <mxPoint x="740" y="650" />
              <mxPoint x="740" y="620" />
            </Array>
          </mxGeometry>
        </mxCell>
        <mxCell id="vSUFQTlU9pvVbKKtqVWv-6" style="edgeStyle=orthogonalEdgeStyle;rounded=0;orthogonalLoop=1;jettySize=auto;html=1;entryX=0;entryY=0.5;entryDx=0;entryDy=0;jumpStyle=arc;" parent="1" source="I2NlqOw4OFW8eWiskqis-1" target="TZqJoyw8SQo_n2cczf-P-20" edge="1">
          <mxGeometry relative="1" as="geometry">
            <Array as="points">
              <mxPoint x="1030" y="670" />
              <mxPoint x="1030" y="670" />
            </Array>
          </mxGeometry>
        </mxCell>
        <mxCell id="vSUFQTlU9pvVbKKtqVWv-31" style="edgeStyle=orthogonalEdgeStyle;rounded=0;orthogonalLoop=1;jettySize=auto;html=1;entryX=1;entryY=0.5;entryDx=0;entryDy=0;exitX=0;exitY=0.5;exitDx=0;exitDy=0;jumpStyle=arc;" parent="1" source="TZqJoyw8SQo_n2cczf-P-17" target="vSUFQTlU9pvVbKKtqVWv-25" edge="1">
          <mxGeometry relative="1" as="geometry">
            <Array as="points">
              <mxPoint x="1050" y="810" />
              <mxPoint x="1050" y="710" />
            </Array>
          </mxGeometry>
        </mxCell>
        <mxCell id="vSUFQTlU9pvVbKKtqVWv-3" style="edgeStyle=orthogonalEdgeStyle;rounded=0;orthogonalLoop=1;jettySize=auto;html=1;entryX=1;entryY=0.5;entryDx=0;entryDy=0;jumpStyle=arc;exitX=0;exitY=0.5;exitDx=0;exitDy=0;" parent="1" source="TZqJoyw8SQo_n2cczf-P-18" target="vSUFQTlU9pvVbKKtqVWv-1" edge="1">
          <mxGeometry relative="1" as="geometry">
            <Array as="points">
              <mxPoint x="1040" y="830" />
              <mxPoint x="1040" y="770" />
            </Array>
          </mxGeometry>
        </mxCell>
      </root>
    </mxGraphModel>
  </diagram>
</mxfile>
